# xmcd CD database file
#
# Track frame offsets:
#	183
#	25358
#	55358
#	89983
#	130808
#	161833
#
# Disc length: 2559 seconds
#
# Revision: 0
# Processed by: cddbd v1.4PL0 Copyright (c) Steve Scherf et al.
# Submitted via: CDex 1.50Beta7
#
DISCID=5509fd06
DTITLE=Ronnie Mathews Trio - Song For Leslie
DYEAR=1900
DGENRE=Jazz
TTITLE0=Song For Leslie
TTITLE1=Ask Me Now
TTITLE2=It Don't Mean a Thing
TTITLE3=Susanita
TTITLE4=I  should Care
TTITLE5=Once  I  Loved
EXTD=
EXTT0=
EXTT1=
EXTT2=
EXTT3=
EXTT4=
EXTT5=
PLAYORDER=
